{"title":"Shredder 2003 DVDRip Xvid AC3 LKRG","uid":10743889,"size":918781770,"categoryP":"video","categoryS":"movies","magnet":"?xt=urn:btih:9782b4606b67873211f99bc9e0c44da2a06e8690&amp;dn=Shredder+2003+DVDRip+Xvid+AC3+LKRG&amp;tr=udp%3A%2F%2Ftracker.openbittorrent.com%3A80&amp;tr=udp%3A%2F%2Fopen.demonii.com%3A1337&amp;tr=udp%3A%2F%2Ftracker.coppersurfer.tk%3A6969&amp;tr=udp%3A%2F%2Fexodus.desync.com%3A6969","seeders":0,"leechers":2,"uploader":".BONE.","files":2,"time":1407792752,"description":"PLOT\n\nAt an exclusive, secluded North American ski resort up on Mount Rocky Summit, brutal slashing,\nsevering and beheading on a group of teenagers are taking place and are believed to be the work of a mysterious skier\ndressed in BLACK.\n\n\nRuntime ..........: 1h 26mn\nFile Size ........: 876 MB\nResolution .......: 720 x 464 &lt;a href=&quot;\nhttp://www.imdb.com/title/tt0282163/&quot; rel=&quot;nofollow&quot; target=&quot;_NEW&quot;&gt;\nhttp://www.imdb.com/title/tt0282163/&lt;/a&gt;\nGenre ............: Horror\nLanguage .........: English\nSubtitles ........: None\nComplete name : Shredder 2003 DVDRip Xvid AC3 LKRGShredder_LKRG.avi\nFormat : AVI\nFormat/Info : Audio Video Interleave\nFile size : 876 MiB\nDuration : 1h 26mn\nOverall bit rate : 1 423 Kbps\nWriting application : VirtualDubMod 1.5.10.2 (build 2540/release)\nWriting library : VirtualDubMod build 2540/release\nVideo\nID : 0\nFormat : MPEG-4 Visual\nFormat profile : Advanced Simple@L5\nFormat settings, BVOP : 2\nFormat settings, QPel : No\nFormat settings, GMC : No warppoints\nFormat settings, Matrix : Default (H.263)\nMuxing mode : Packed bitstream\nCodec ID : XVID\nCodec ID/Hint : XviD\nDuration : 1h 26mn\nBit rate : 1 190 Kbps\nWidth : 720 pixels\nHeight : 464 pixels\nDisplay aspect ratio : 1.881\nFrame rate : 23.976 fps\nColor space : YUV\nChroma subsampling : 4:2:0\nBit depth : 8 bits\nScan type : Progressive\nCompression mode : Lossy\nBits/(Pixel*Frame) : 0.149\nStream size : 733 MiB (84%)\nWriting library : XviD 1.2.1 (UTC 2008-12-04)\nAudio\nID : 1\nFormat : AC-3\nFormat/Info : Audio Coding 3\nMode extension : CM (complete main)\nFormat settings, Endianness : Big\nCodec ID : 2000\nDuration : 1h 26mn\nBit rate mode : Constant\nBit rate : 224 Kbps\nChannel(s) : 2 channels\nChannel positions : Front: L R\nSampling rate : 48.0 KHz\nBit depth : 16 bits\nCompression mode : Lossy\nStream size : 138 MiB (16%)\nAlignment : Split accross interleaves\nInterleave, duration : 42 ms (1.00 video frame)\nInterleave, preload duration : 500 ms","torrent":{"xt":"urn:btih:9782b4606b67873211f99bc9e0c44da2a06e8690","amp;dn":"Shredder+2003+DVDRip+Xvid+AC3+LKRG","amp;tr":["udp%3A%2F%2Ftracker.openbittorrent.com%3A80","udp%3A%2F%2Fopen.demonii.com%3A1337","udp%3A%2F%2Ftracker.coppersurfer.tk%3A6969","udp%3A%2F%2Fexodus.desync.com%3A6969"],"infoHash":"9782b4606b67873211f99bc9e0c44da2a06e8690","infoHashBuffer":{"type":"Buffer","data":[151,130,180,96,107,103,135,50,17,249,155,201,224,196,77,162,160,110,134,144]},"announce":[],"urlList":[]}}